/* C:\Users\krs\Downloads\Mario Bros. - Super Mario Bros. Theme.mid (18-02-2020 00:05:49)
   StartOffset(h): 00000000, EndOffset(h): 00000AB8, Length(h): 00000AB9 */

const char rawData[] = {
	0x4D, 0x54, 0x68, 0x64, 0x00, 0x00, 0x00, 0x06, 0x00, 0x01, 0x00, 0x01,
	0x01, 0xE0, 0x4D, 0x54, 0x72, 0x6B, 0x00, 0x00, 0x0A, 0xA3, 0x00, 0xFF,
	0x08, 0x18, 0x53, 0x75, 0x70, 0x65, 0x72, 0x20, 0x4D, 0x61, 0x72, 0x69,
	0x6F, 0x20, 0x42, 0x72, 0x6F, 0x73, 0x2E, 0x20, 0x54, 0x68, 0x65, 0x6D,
	0x65, 0x00, 0x00, 0xFF, 0x0A, 0x1C, 0x4B, 0x6F, 0x6A, 0x69, 0x20, 0x4B,
	0x6F, 0x6E, 0x64, 0x6F, 0x0A, 0x74, 0x72, 0x61, 0x6E, 0x73, 0x2E, 0x20,
	0x53, 0x74, 0x65, 0x6C, 0x6C, 0x61, 0x20, 0x4C, 0x75, 0x00, 0x00, 0xFF,
	0x58, 0x04, 0x04, 0x02, 0x18, 0x08, 0x00, 0xFF, 0x59, 0x02, 0x00, 0x00,
	0x00, 0xC0, 0x28, 0x00, 0x90, 0x4C, 0x50, 0x00, 0x48, 0x50, 0x02, 0xB0,
	0x07, 0x64, 0x02, 0x0A, 0x40, 0x02, 0x5B, 0x1E, 0x02, 0x5D, 0x1E, 0x6F,
	0x90, 0x4C, 0x00, 0x00, 0x48, 0x00, 0x01, 0x4C, 0x50, 0x00, 0x48, 0x50,
	0x81, 0x6F, 0x4C, 0x00, 0x00, 0x48, 0x00, 0x01, 0x4C, 0x50, 0x00, 0x48,
	0x50, 0x77, 0x4C, 0x00, 0x00, 0x48, 0x00, 0x79, 0x48, 0x50, 0x77, 0x48,
	0x00, 0x01, 0x4C, 0x50, 0x77, 0x4C, 0x00, 0x79, 0x4F, 0x50, 0x00, 0x47,
	0x50, 0x81, 0x6F, 0x4F, 0x00, 0x00, 0x47, 0x00, 0x81, 0x71, 0x43, 0x50,
	0x00, 0x3B, 0x50, 0x81, 0x6F, 0x43, 0x00, 0x00, 0x3B, 0x00, 0x81, 0x71,
	0x48, 0x50, 0x81, 0x6F, 0x48, 0x00, 0x79, 0x43, 0x50, 0x81, 0x6F, 0x43,
	0x00, 0x79, 0x40, 0x50, 0x81, 0x6F, 0x40, 0x00, 0x79, 0x45, 0x50, 0x81,
	0x6F, 0x45, 0x00, 0x01, 0x47, 0x50, 0x81, 0x6F, 0x47, 0x00, 0x01, 0x46,
	0x50, 0x77, 0x46, 0x00, 0x01, 0x45, 0x50, 0x77, 0x45, 0x00, 0x79, 0x43,
	0x50, 0x81, 0x1F, 0x43, 0x00, 0x01, 0x4C, 0x50, 0x81, 0x1F, 0x4C, 0x00,
	0x01, 0x4F, 0x50, 0x81, 0x1F, 0x4F, 0x00, 0x01, 0x51, 0x50, 0x81, 0x6F,
	0x51, 0x00, 0x01, 0x4D, 0x50, 0x77, 0x4D, 0x00, 0x01, 0x4F, 0x50, 0x77,
	0x4F, 0x00, 0x79, 0x4C, 0x50, 0x81, 0x6F, 0x4C, 0x00, 0x01, 0x48, 0x50,
	0x77, 0x48, 0x00, 0x01, 0x4A, 0x50, 0x77, 0x4A, 0x00, 0x01, 0x47, 0x50,
	0x77, 0x47, 0x00, 0x81, 0x71, 0x48, 0x50, 0x81, 0x6F, 0x48, 0x00, 0x79,
	0x43, 0x50, 0x81, 0x6F, 0x43, 0x00, 0x79, 0x40, 0x50, 0x81, 0x6F, 0x40,
	0x00, 0x79, 0x45, 0x50, 0x81, 0x6F, 0x45, 0x00, 0x01, 0x47, 0x50, 0x81,
	0x6F, 0x47, 0x00, 0x01, 0x46, 0x50, 0x77, 0x46, 0x00, 0x01, 0x45, 0x50,
	0x77, 0x45, 0x00, 0x79, 0x43, 0x50, 0x81, 0x1F, 0x43, 0x00, 0x01, 0x4C,
	0x50, 0x81, 0x1F, 0x4C, 0x00, 0x01, 0x4F, 0x50, 0x81, 0x1F, 0x4F, 0x00,
	0x01, 0x51, 0x50, 0x81, 0x6F, 0x51, 0x00, 0x01, 0x4D, 0x50, 0x77, 0x4D,
	0x00, 0x01, 0x4F, 0x50, 0x77, 0x4F, 0x00, 0x79, 0x4C, 0x50, 0x81, 0x6F,
	0x4C, 0x00, 0x01, 0x48, 0x50, 0x77, 0x48, 0x00, 0x01, 0x4A, 0x50, 0x77,
	0x4A, 0x00, 0x01, 0x47, 0x50, 0x77, 0x47, 0x00, 0x81, 0x71, 0x3C, 0x50,
	0x77, 0x3C, 0x00, 0x79, 0x4F, 0x50, 0x77, 0x4F, 0x00, 0x01, 0x4E, 0x50,
	0x77, 0x4E, 0x00, 0x01, 0x4D, 0x50, 0x77, 0x4D, 0x00, 0x01, 0x4B, 0x50,
	0x77, 0x4B, 0x00, 0x79, 0x4C, 0x50, 0x00, 0x48, 0x50, 0x77, 0x4C, 0x00,
	0x00, 0x48, 0x00, 0x79, 0x44, 0x50, 0x77, 0x44, 0x00, 0x01, 0x45, 0x50,
	0x77, 0x45, 0x00, 0x01, 0x48, 0x50, 0x77, 0x48, 0x00, 0x79, 0x45, 0x50,
	0x77, 0x45, 0x00, 0x01, 0x48, 0x50, 0x77, 0x48, 0x00, 0x01, 0x4A, 0x50,
	0x77, 0x4A, 0x00, 0x01, 0x3C, 0x50, 0x77, 0x3C, 0x00, 0x79, 0x4F, 0x50,
	0x77, 0x4F, 0x00, 0x01, 0x4E, 0x50, 0x77, 0x4E, 0x00, 0x01, 0x4D, 0x50,
	0x77, 0x4D, 0x00, 0x01, 0x4B, 0x50, 0x77, 0x4B, 0x00, 0x79, 0x4C, 0x50,
	0x00, 0x48, 0x50, 0x77, 0x4C, 0x00, 0x00, 0x48, 0x00, 0x79, 0x54, 0x50,
	0x00, 0x4C, 0x50, 0x77, 0x54, 0x00, 0x00, 0x4C, 0x00, 0x79, 0x54, 0x50,
	0x00, 0x4C, 0x50, 0x77, 0x54, 0x00, 0x00, 0x4C, 0x00, 0x01, 0x54, 0x50,
	0x00, 0x4C, 0x50, 0x77, 0x54, 0x00, 0x00, 0x4C, 0x00, 0x79, 0x43, 0x50,
	0x77, 0x43, 0x00, 0x79, 0x3C, 0x50, 0x77, 0x3C, 0x00, 0x79, 0x4F, 0x50,
	0x77, 0x4F, 0x00, 0x01, 0x4E, 0x50, 0x77, 0x4E, 0x00, 0x01, 0x4D, 0x50,
	0x77, 0x4D, 0x00, 0x01, 0x4B, 0x50, 0x77, 0x4B, 0x00, 0x79, 0x4C, 0x50,
	0x00, 0x48, 0x50, 0x77, 0x4C, 0x00, 0x00, 0x48, 0x00, 0x79, 0x44, 0x50,
	0x77, 0x44, 0x00, 0x01, 0x45, 0x50, 0x77, 0x45, 0x00, 0x01, 0x48, 0x50,
	0x77, 0x48, 0x00, 0x79, 0x45, 0x50, 0x77, 0x45, 0x00, 0x01, 0x48, 0x50,
	0x77, 0x48, 0x00, 0x01, 0x4A, 0x50, 0x77, 0x4A, 0x00, 0x81, 0x71, 0x4B,
	0x50, 0x00, 0x44, 0x50, 0x77, 0x4B, 0x00, 0x00, 0x44, 0x00, 0x81, 0x71,
	0x4A, 0x50, 0x00, 0x43, 0x50, 0x77, 0x4A, 0x00, 0x00, 0x43, 0x00, 0x81,
	0x71, 0x48, 0x50, 0x00, 0x40, 0x50, 0x77, 0x48, 0x00, 0x00, 0x40, 0x00,
	0x81, 0x71, 0x43, 0x50, 0x77, 0x43, 0x00, 0x01, 0x43, 0x50, 0x77, 0x43,
	0x00, 0x79, 0x3C, 0x50, 0x77, 0x3C, 0x00, 0x79, 0x3C, 0x50, 0x77, 0x3C,
	0x00, 0x79, 0x4F, 0x50, 0x77, 0x4F, 0x00, 0x01, 0x4E, 0x50, 0x77, 0x4E,
	0x00, 0x01, 0x4D, 0x50, 0x77, 0x4D, 0x00, 0x01, 0x4B, 0x50, 0x77, 0x4B,
	0x00, 0x79, 0x4C, 0x50, 0x00, 0x48, 0x50, 0x77, 0x4C, 0x00, 0x00, 0x48,
	0x00, 0x79, 0x44, 0x50, 0x77, 0x44, 0x00, 0x01, 0x45, 0x50, 0x77, 0x45,
	0x00, 0x01, 0x48, 0x50, 0x77, 0x48, 0x00, 0x79, 0x45, 0x50, 0x77, 0x45,
	0x00, 0x01, 0x48, 0x50, 0x77, 0x48, 0x00, 0x01, 0x4A, 0x50, 0x77, 0x4A,
	0x00, 0x01, 0x3C, 0x50, 0x77, 0x3C, 0x00, 0x79, 0x4F, 0x50, 0x77, 0x4F,
	0x00, 0x01, 0x4E, 0x50, 0x77, 0x4E, 0x00, 0x01, 0x4D, 0x50, 0x77, 0x4D,
	0x00, 0x01, 0x4B, 0x50, 0x77, 0x4B, 0x00, 0x79, 0x4C, 0x50, 0x00, 0x48,
	0x50, 0x77, 0x4C, 0x00, 0x00, 0x48, 0x00, 0x79, 0x54, 0x50, 0x00, 0x4C,
	0x50, 0x77, 0x54, 0x00, 0x00, 0x4C, 0x00, 0x79, 0x54, 0x50, 0x00, 0x4C,
	0x50, 0x77, 0x54, 0x00, 0x00, 0x4C, 0x00, 0x01, 0x54, 0x50, 0x00, 0x4C,
	0x50, 0x77, 0x54, 0x00, 0x00, 0x4C, 0x00, 0x79, 0x43, 0x50, 0x77, 0x43,
	0x00, 0x79, 0x3C, 0x50, 0x77, 0x3C, 0x00, 0x79, 0x4F, 0x50, 0x77, 0x4F,
	0x00, 0x01, 0x4E, 0x50, 0x77, 0x4E, 0x00, 0x01, 0x4D, 0x50, 0x77, 0x4D,
	0x00, 0x01, 0x4B, 0x50, 0x77, 0x4B, 0x00, 0x79, 0x4C, 0x50, 0x00, 0x48,
	0x50, 0x77, 0x4C, 0x00, 0x00, 0x48, 0x00, 0x79, 0x44, 0x50, 0x77, 0x44,
	0x00, 0x01, 0x45, 0x50, 0x77, 0x45, 0x00, 0x01, 0x48, 0x50, 0x77, 0x48,
	0x00, 0x79, 0x45, 0x50, 0x77, 0x45, 0x00, 0x01, 0x48, 0x50, 0x77, 0x48,
	0x00, 0x01, 0x4A, 0x50, 0x77, 0x4A, 0x00, 0x81, 0x71, 0x4B, 0x50, 0x00,
	0x44, 0x50, 0x77, 0x4B, 0x00, 0x00, 0x44, 0x00, 0x81, 0x71, 0x4A, 0x50,
	0x00, 0x43, 0x50, 0x77, 0x4A, 0x00, 0x00, 0x43, 0x00, 0x81, 0x71, 0x48,
	0x50, 0x00, 0x40, 0x50, 0x77, 0x48, 0x00, 0x00, 0x40, 0x00, 0x81, 0x71,
	0x43, 0x50, 0x77, 0x43, 0x00, 0x01, 0x43, 0x50, 0x77, 0x43, 0x00, 0x79,
	0x3C, 0x50, 0x77, 0x3C, 0x00, 0x79, 0x48, 0x50, 0x00, 0x40, 0x50, 0x77,
	0x48, 0x00, 0x00, 0x40, 0x00, 0x01, 0x48, 0x50, 0x77, 0x48, 0x00, 0x79,
	0x48, 0x50, 0x77, 0x48, 0x00, 0x79, 0x48, 0x50, 0x77, 0x48, 0x00, 0x01,
	0x4A, 0x50, 0x77, 0x4A, 0x00, 0x79, 0x4C, 0x50, 0x77, 0x4C, 0x00, 0x01,
	0x48, 0x50, 0x77, 0x48, 0x00, 0x79, 0x45, 0x50, 0x77, 0x45, 0x00, 0x01,
	0x43, 0x50, 0x77, 0x43, 0x00, 0x79, 0x3C, 0x50, 0x77, 0x3C, 0x00, 0x79,
	0x48, 0x50, 0x00, 0x40, 0x50, 0x77, 0x48, 0x00, 0x00, 0x40, 0x00, 0x01,
	0x48, 0x50, 0x77, 0x48, 0x00, 0x79, 0x48, 0x50, 0x77, 0x48, 0x00, 0x79,
	0x48, 0x50, 0x77, 0x48, 0x00, 0x01, 0x4A, 0x50, 0x77, 0x4A, 0x00, 0x01,
	0x4C, 0x50, 0x77, 0x4C, 0x00, 0x01, 0x43, 0x50, 0x77, 0x43, 0x00, 0x81,
	0x71, 0x3C, 0x50, 0x77, 0x3C, 0x00, 0x81, 0x71, 0x3C, 0x50, 0x77, 0x3C,
	0x00, 0x79, 0x48, 0x50, 0x00, 0x40, 0x50, 0x77, 0x48, 0x00, 0x00, 0x40,
	0x00, 0x01, 0x48, 0x50, 0x77, 0x48, 0x00, 0x79, 0x48, 0x50, 0x77, 0x48,
	0x00, 0x79, 0x48, 0x50, 0x77, 0x48, 0x00, 0x01, 0x4A, 0x50, 0x77, 0x4A,
	0x00, 0x79, 0x4C, 0x50, 0x77, 0x4C, 0x00, 0x01, 0x48, 0x50, 0x77, 0x48,
	0x00, 0x79, 0x45, 0x50, 0x77, 0x45, 0x00, 0x01, 0x43, 0x50, 0x77, 0x43,
	0x00, 0x79, 0x3C, 0x50, 0x77, 0x3C, 0x00, 0x79, 0x4C, 0x50, 0x00, 0x48,
	0x50, 0x77, 0x4C, 0x00, 0x00, 0x48, 0x00, 0x01, 0x4C, 0x50, 0x00, 0x48,
	0x50, 0x77, 0x4C, 0x00, 0x00, 0x48, 0x00, 0x79, 0x4C, 0x50, 0x00, 0x48,
	0x50, 0x77, 0x4C, 0x00, 0x00, 0x48, 0x00, 0x79, 0x48, 0x50, 0x77, 0x48,
	0x00, 0x01, 0x4C, 0x50, 0x77, 0x4C, 0x00, 0x79, 0x4F, 0x50, 0x00, 0x47,
	0x50, 0x81, 0x6F, 0x4F, 0x00, 0x00, 0x47, 0x00, 0x81, 0x71, 0x43, 0x50,
	0x00, 0x3B, 0x50, 0x81, 0x6F, 0x43, 0x00, 0x00, 0x3B, 0x00, 0x81, 0x71,
	0x48, 0x50, 0x81, 0x6F, 0x48, 0x00, 0x79, 0x43, 0x50, 0x81, 0x6F, 0x43,
	0x00, 0x79, 0x40, 0x50, 0x81, 0x6F, 0x40, 0x00, 0x79, 0x45, 0x50, 0x81,
	0x6F, 0x45, 0x00, 0x01, 0x47, 0x50, 0x81, 0x6F, 0x47, 0x00, 0x01, 0x46,
	0x50, 0x77, 0x46, 0x00, 0x01, 0x45, 0x50, 0x77, 0x45, 0x00, 0x79, 0x43,
	0x50, 0x81, 0x1F, 0x43, 0x00, 0x01, 0x4C, 0x50, 0x81, 0x1F, 0x4C, 0x00,
	0x01, 0x4F, 0x50, 0x81, 0x1F, 0x4F, 0x00, 0x01, 0x51, 0x50, 0x81, 0x6F,
	0x51, 0x00, 0x01, 0x4D, 0x50, 0x77, 0x4D, 0x00, 0x01, 0x4F, 0x50, 0x77,
	0x4F, 0x00, 0x79, 0x4C, 0x50, 0x81, 0x6F, 0x4C, 0x00, 0x01, 0x48, 0x50,
	0x77, 0x48, 0x00, 0x01, 0x4A, 0x50, 0x77, 0x4A, 0x00, 0x01, 0x47, 0x50,
	0x77, 0x47, 0x00, 0x81, 0x71, 0x48, 0x50, 0x81, 0x6F, 0x48, 0x00, 0x79,
	0x43, 0x50, 0x81, 0x6F, 0x43, 0x00, 0x79, 0x40, 0x50, 0x81, 0x6F, 0x40,
	0x00, 0x79, 0x45, 0x50, 0x81, 0x6F, 0x45, 0x00, 0x01, 0x47, 0x50, 0x81,
	0x6F, 0x47, 0x00, 0x01, 0x46, 0x50, 0x77, 0x46, 0x00, 0x01, 0x45, 0x50,
	0x77, 0x45, 0x00, 0x79, 0x43, 0x50, 0x81, 0x1F, 0x43, 0x00, 0x01, 0x4C,
	0x50, 0x81, 0x1F, 0x4C, 0x00, 0x01, 0x4F, 0x50, 0x81, 0x1F, 0x4F, 0x00,
	0x01, 0x51, 0x50, 0x81, 0x6F, 0x51, 0x00, 0x01, 0x4D, 0x50, 0x77, 0x4D,
	0x00, 0x01, 0x4F, 0x50, 0x77, 0x4F, 0x00, 0x79, 0x4C, 0x50, 0x81, 0x6F,
	0x4C, 0x00, 0x01, 0x48, 0x50, 0x77, 0x48, 0x00, 0x01, 0x4A, 0x50, 0x77,
	0x4A, 0x00, 0x01, 0x47, 0x50, 0x77, 0x47, 0x00, 0x81, 0x71, 0x4C, 0x50,
	0x77, 0x4C, 0x00, 0x01, 0x48, 0x50, 0x77, 0x48, 0x00, 0x79, 0x43, 0x50,
	0x81, 0x6F, 0x43, 0x00, 0x79, 0x44, 0x50, 0x81, 0x6F, 0x44, 0x00, 0x01,
	0x45, 0x50, 0x77, 0x45, 0x00, 0x01, 0x4D, 0x50, 0x77, 0x4D, 0x00, 0x79,
	0x4D, 0x50, 0x77, 0x4D, 0x00, 0x01, 0x45, 0x50, 0x77, 0x45, 0x00, 0x79,
	0x3C, 0x50, 0x77, 0x3C, 0x00, 0x79, 0x47, 0x50, 0x00, 0x43, 0x50, 0x81,
	0x1F, 0x47, 0x00, 0x00, 0x43, 0x00, 0x01, 0x51, 0x50, 0x00, 0x4D, 0x50,
	0x81, 0x1F, 0x51, 0x00, 0x00, 0x4D, 0x00, 0x01, 0x51, 0x50, 0x00, 0x4D,
	0x50, 0x81, 0x1F, 0x51, 0x00, 0x00, 0x4D, 0x00, 0x01, 0x51, 0x50, 0x00,
	0x4D, 0x50, 0x81, 0x1F, 0x51, 0x00, 0x00, 0x4D, 0x00, 0x01, 0x4F, 0x50,
	0x00, 0x47, 0x50, 0x81, 0x1F, 0x4F, 0x00, 0x00, 0x47, 0x00, 0x01, 0x4D,
	0x50, 0x81, 0x1F, 0x4D, 0x00, 0x01, 0x4C, 0x50, 0x77, 0x4C, 0x00, 0x01,
	0x48, 0x50, 0x77, 0x48, 0x00, 0x79, 0x45, 0x50, 0x77, 0x45, 0x00, 0x01,
	0x43, 0x50, 0x77, 0x43, 0x00, 0x79, 0x3C, 0x50, 0x77, 0x3C, 0x00, 0x79,
	0x4C, 0x50, 0x77, 0x4C, 0x00, 0x01, 0x48, 0x50, 0x77, 0x48, 0x00, 0x79,
	0x43, 0x50, 0x81, 0x6F, 0x43, 0x00, 0x79, 0x44, 0x50, 0x81, 0x6F, 0x44,
	0x00, 0x01, 0x45, 0x50, 0x77, 0x45, 0x00, 0x01, 0x4D, 0x50, 0x77, 0x4D,
	0x00, 0x79, 0x4D, 0x50, 0x77, 0x4D, 0x00, 0x01, 0x45, 0x50, 0x77, 0x45,
	0x00, 0x79, 0x3C, 0x50, 0x77, 0x3C, 0x00, 0x79, 0x47, 0x50, 0x00, 0x43,
	0x50, 0x77, 0x47, 0x00, 0x00, 0x43, 0x00, 0x01, 0x4D, 0x50, 0x00, 0x45,
	0x50, 0x77, 0x4D, 0x00, 0x00, 0x45, 0x00, 0x79, 0x4D, 0x50, 0x00, 0x45,
	0x50, 0x77, 0x4D, 0x00, 0x00, 0x45, 0x00, 0x01, 0x4D, 0x50, 0x00, 0x45,
	0x50, 0x81, 0x1F, 0x4D, 0x00, 0x00, 0x45, 0x00, 0x01, 0x4C, 0x50, 0x00,
	0x43, 0x50, 0x81, 0x1F, 0x4C, 0x00, 0x00, 0x43, 0x00, 0x01, 0x4A, 0x50,
	0x00, 0x41, 0x50, 0x81, 0x1F, 0x4A, 0x00, 0x00, 0x41, 0x00, 0x01, 0x48,
	0x50, 0x00, 0x40, 0x50, 0x77, 0x48, 0x00, 0x00, 0x40, 0x00, 0x01, 0x43,
	0x50, 0x77, 0x43, 0x00, 0x79, 0x43, 0x50, 0x77, 0x43, 0x00, 0x01, 0x3C,
	0x50, 0x81, 0x6F, 0x3C, 0x00, 0x81, 0x71, 0x4C, 0x50, 0x77, 0x4C, 0x00,
	0x01, 0x48, 0x50, 0x77, 0x48, 0x00, 0x79, 0x43, 0x50, 0x81, 0x6F, 0x43,
	0x00, 0x79, 0x44, 0x50, 0x81, 0x6F, 0x44, 0x00, 0x01, 0x45, 0x50, 0x77,
	0x45, 0x00, 0x01, 0x4D, 0x50, 0x77, 0x4D, 0x00, 0x79, 0x4D, 0x50, 0x77,
	0x4D, 0x00, 0x01, 0x45, 0x50, 0x77, 0x45, 0x00, 0x79, 0x3C, 0x50, 0x77,
	0x3C, 0x00, 0x79, 0x47, 0x50, 0x00, 0x43, 0x50, 0x81, 0x1F, 0x47, 0x00,
	0x00, 0x43, 0x00, 0x01, 0x51, 0x50, 0x00, 0x4D, 0x50, 0x81, 0x1F, 0x51,
	0x00, 0x00, 0x4D, 0x00, 0x01, 0x51, 0x50, 0x00, 0x4D, 0x50, 0x81, 0x1F,
	0x51, 0x00, 0x00, 0x4D, 0x00, 0x01, 0x51, 0x50, 0x00, 0x4D, 0x50, 0x81,
	0x1F, 0x51, 0x00, 0x00, 0x4D, 0x00, 0x01, 0x4F, 0x50, 0x00, 0x47, 0x50,
	0x81, 0x1F, 0x4F, 0x00, 0x00, 0x47, 0x00, 0x01, 0x4D, 0x50, 0x81, 0x1F,
	0x4D, 0x00, 0x01, 0x4C, 0x50, 0x77, 0x4C, 0x00, 0x01, 0x48, 0x50, 0x77,
	0x48, 0x00, 0x79, 0x45, 0x50, 0x77, 0x45, 0x00, 0x01, 0x43, 0x50, 0x77,
	0x43, 0x00, 0x79, 0x3C, 0x50, 0x77, 0x3C, 0x00, 0x79, 0x4C, 0x50, 0x77,
	0x4C, 0x00, 0x01, 0x48, 0x50, 0x77, 0x48, 0x00, 0x79, 0x43, 0x50, 0x81,
	0x6F, 0x43, 0x00, 0x79, 0x44, 0x50, 0x81, 0x6F, 0x44, 0x00, 0x01, 0x45,
	0x50, 0x77, 0x45, 0x00, 0x01, 0x4D, 0x50, 0x77, 0x4D, 0x00, 0x79, 0x4D,
	0x50, 0x77, 0x4D, 0x00, 0x01, 0x45, 0x50, 0x77, 0x45, 0x00, 0x79, 0x3C,
	0x50, 0x77, 0x3C, 0x00, 0x79, 0x47, 0x50, 0x00, 0x43, 0x50, 0x77, 0x47,
	0x00, 0x00, 0x43, 0x00, 0x01, 0x4D, 0x50, 0x00, 0x45, 0x50, 0x77, 0x4D,
	0x00, 0x00, 0x45, 0x00, 0x79, 0x4D, 0x50, 0x00, 0x45, 0x50, 0x77, 0x4D,
	0x00, 0x00, 0x45, 0x00, 0x01, 0x4D, 0x50, 0x00, 0x45, 0x50, 0x81, 0x1F,
	0x4D, 0x00, 0x00, 0x45, 0x00, 0x01, 0x4C, 0x50, 0x00, 0x43, 0x50, 0x81,
	0x1F, 0x4C, 0x00, 0x00, 0x43, 0x00, 0x01, 0x4A, 0x50, 0x00, 0x41, 0x50,
	0x81, 0x1F, 0x4A, 0x00, 0x00, 0x41, 0x00, 0x01, 0x48, 0x50, 0x00, 0x40,
	0x50, 0x77, 0x48, 0x00, 0x00, 0x40, 0x00, 0x01, 0x43, 0x50, 0x77, 0x43,
	0x00, 0x79, 0x43, 0x50, 0x77, 0x43, 0x00, 0x01, 0x3C, 0x50, 0x81, 0x6F,
	0x3C, 0x00, 0x81, 0x71, 0x48, 0x50, 0x00, 0x40, 0x50, 0x77, 0x48, 0x00,
	0x00, 0x40, 0x00, 0x01, 0x48, 0x50, 0x77, 0x48, 0x00, 0x79, 0x48, 0x50,
	0x77, 0x48, 0x00, 0x79, 0x48, 0x50, 0x77, 0x48, 0x00, 0x01, 0x4A, 0x50,
	0x77, 0x4A, 0x00, 0x79, 0x4C, 0x50, 0x77, 0x4C, 0x00, 0x01, 0x48, 0x50,
	0x77, 0x48, 0x00, 0x79, 0x45, 0x50, 0x77, 0x45, 0x00, 0x01, 0x43, 0x50,
	0x77, 0x43, 0x00, 0x79, 0x3C, 0x50, 0x77, 0x3C, 0x00, 0x79, 0x48, 0x50,
	0x00, 0x40, 0x50, 0x77, 0x48, 0x00, 0x00, 0x40, 0x00, 0x01, 0x48, 0x50,
	0x77, 0x48, 0x00, 0x79, 0x48, 0x50, 0x77, 0x48, 0x00, 0x79, 0x48, 0x50,
	0x77, 0x48, 0x00, 0x01, 0x4A, 0x50, 0x77, 0x4A, 0x00, 0x01, 0x4C, 0x50,
	0x77, 0x4C, 0x00, 0x01, 0x43, 0x50, 0x77, 0x43, 0x00, 0x81, 0x71, 0x3C,
	0x50, 0x77, 0x3C, 0x00, 0x81, 0x71, 0x3C, 0x50, 0x77, 0x3C, 0x00, 0x79,
	0x48, 0x50, 0x00, 0x40, 0x50, 0x77, 0x48, 0x00, 0x00, 0x40, 0x00, 0x01,
	0x48, 0x50, 0x77, 0x48, 0x00, 0x79, 0x48, 0x50, 0x77, 0x48, 0x00, 0x79,
	0x48, 0x50, 0x77, 0x48, 0x00, 0x01, 0x4A, 0x50, 0x77, 0x4A, 0x00, 0x79,
	0x4C, 0x50, 0x77, 0x4C, 0x00, 0x01, 0x48, 0x50, 0x77, 0x48, 0x00, 0x79,
	0x45, 0x50, 0x77, 0x45, 0x00, 0x01, 0x43, 0x50, 0x77, 0x43, 0x00, 0x79,
	0x3C, 0x50, 0x77, 0x3C, 0x00, 0x79, 0x4C, 0x50, 0x00, 0x48, 0x50, 0x77,
	0x4C, 0x00, 0x00, 0x48, 0x00, 0x01, 0x4C, 0x50, 0x00, 0x48, 0x50, 0x77,
	0x4C, 0x00, 0x00, 0x48, 0x00, 0x79, 0x4C, 0x50, 0x00, 0x48, 0x50, 0x77,
	0x4C, 0x00, 0x00, 0x48, 0x00, 0x79, 0x48, 0x50, 0x77, 0x48, 0x00, 0x01,
	0x4C, 0x50, 0x77, 0x4C, 0x00, 0x79, 0x4F, 0x50, 0x00, 0x47, 0x50, 0x81,
	0x6F, 0x4F, 0x00, 0x00, 0x47, 0x00, 0x81, 0x71, 0x43, 0x50, 0x00, 0x3B,
	0x50, 0x81, 0x6F, 0x43, 0x00, 0x00, 0x3B, 0x00, 0x81, 0x71, 0x4C, 0x50,
	0x77, 0x4C, 0x00, 0x01, 0x48, 0x50, 0x77, 0x48, 0x00, 0x79, 0x43, 0x50,
	0x81, 0x6F, 0x43, 0x00, 0x79, 0x44, 0x50, 0x81, 0x6F, 0x44, 0x00, 0x01,
	0x45, 0x50, 0x77, 0x45, 0x00, 0x01, 0x4D, 0x50, 0x77, 0x4D, 0x00, 0x79,
	0x4D, 0x50, 0x77, 0x4D, 0x00, 0x01, 0x45, 0x50, 0x77, 0x45, 0x00, 0x79,
	0x3C, 0x50, 0x77, 0x3C, 0x00, 0x79, 0x47, 0x50, 0x00, 0x43, 0x50, 0x81,
	0x1F, 0x47, 0x00, 0x00, 0x43, 0x00, 0x01, 0x51, 0x50, 0x00, 0x4D, 0x50,
	0x81, 0x1F, 0x51, 0x00, 0x00, 0x4D, 0x00, 0x01, 0x51, 0x50, 0x00, 0x4D,
	0x50, 0x81, 0x1F, 0x51, 0x00, 0x00, 0x4D, 0x00, 0x01, 0x51, 0x50, 0x00,
	0x4D, 0x50, 0x81, 0x1F, 0x51, 0x00, 0x00, 0x4D, 0x00, 0x01, 0x4F, 0x50,
	0x00, 0x47, 0x50, 0x81, 0x1F, 0x4F, 0x00, 0x00, 0x47, 0x00, 0x01, 0x4D,
	0x50, 0x81, 0x1F, 0x4D, 0x00, 0x01, 0x4C, 0x50, 0x77, 0x4C, 0x00, 0x01,
	0x48, 0x50, 0x77, 0x48, 0x00, 0x79, 0x45, 0x50, 0x77, 0x45, 0x00, 0x01,
	0x43, 0x50, 0x77, 0x43, 0x00, 0x79, 0x3C, 0x50, 0x77, 0x3C, 0x00, 0x79,
	0x4C, 0x50, 0x77, 0x4C, 0x00, 0x01, 0x48, 0x50, 0x77, 0x48, 0x00, 0x79,
	0x43, 0x50, 0x81, 0x6F, 0x43, 0x00, 0x79, 0x44, 0x50, 0x81, 0x6F, 0x44,
	0x00, 0x01, 0x45, 0x50, 0x77, 0x45, 0x00, 0x01, 0x4D, 0x50, 0x77, 0x4D,
	0x00, 0x79, 0x4D, 0x50, 0x77, 0x4D, 0x00, 0x01, 0x45, 0x50, 0x77, 0x45,
	0x00, 0x79, 0x3C, 0x50, 0x77, 0x3C, 0x00, 0x79, 0x47, 0x50, 0x00, 0x43,
	0x50, 0x77, 0x47, 0x00, 0x00, 0x43, 0x00, 0x01, 0x4D, 0x50, 0x00, 0x45,
	0x50, 0x77, 0x4D, 0x00, 0x00, 0x45, 0x00, 0x79, 0x4D, 0x50, 0x00, 0x45,
	0x50, 0x77, 0x4D, 0x00, 0x00, 0x45, 0x00, 0x01, 0x4D, 0x50, 0x00, 0x45,
	0x50, 0x81, 0x1F, 0x4D, 0x00, 0x00, 0x45, 0x00, 0x01, 0x4C, 0x50, 0x00,
	0x43, 0x50, 0x81, 0x1F, 0x4C, 0x00, 0x00, 0x43, 0x00, 0x01, 0x4A, 0x50,
	0x00, 0x41, 0x50, 0x81, 0x1F, 0x4A, 0x00, 0x00, 0x41, 0x00, 0x01, 0x48,
	0x50, 0x00, 0x40, 0x50, 0x77, 0x48, 0x00, 0x00, 0x40, 0x00, 0x01, 0x43,
	0x50, 0x77, 0x43, 0x00, 0x79, 0x43, 0x50, 0x77, 0x43, 0x00, 0x01, 0x3C,
	0x50, 0x81, 0x6F, 0x3C, 0x00, 0x01, 0xFF, 0x2F, 0x00
};
